<?xml version="1.0" encoding="UTF-8" standalone="no"?>
<svg
   xmlns:dc="http://purl.org/dc/elements/1.1/"
   xmlns:cc="http://creativecommons.org/ns#"
   xmlns:rdf="http://www.w3.org/1999/02/22-rdf-syntax-ns#"
   xmlns:svg="http://www.w3.org/2000/svg"
   xmlns="http://www.w3.org/2000/svg"
   xmlns:sodipodi="http://sodipodi.sourceforge.net/DTD/sodipodi-0.dtd"
   xmlns:inkscape="http://www.inkscape.org/namespaces/inkscape"
   inkscape:version="1.0 (4035a4f, 2020-05-01)"
   sodipodi:docname="drawing.svg"
   width="215.76047mm"
   height="268.1976mm"
   viewBox="0 0 215.76047 268.1976"
   version="1.1"
   id="svg8">
  <sodipodi:namedview
     inkscape:current-layer="svg8"
     inkscape:window-maximized="0"
     inkscape:window-y="23"
     inkscape:window-x="1920"
     inkscape:cy="506.83011"
     inkscape:cx="407.73632"
     inkscape:zoom="0.99441605"
     showgrid="false"
     id="namedview43"
     inkscape:window-height="1395"
     inkscape:window-width="2560"
     inkscape:pageshadow="2"
     inkscape:pageopacity="0"
     guidetolerance="10"
     gridtolerance="10"
     objecttolerance="10"
     borderopacity="1"
     bordercolor="#666666"
     pagecolor="#ffffff" />
  <defs
     id="defs2" />
  <metadata
     id="metadata5">
    <rdf:RDF>
      <cc:Work
         rdf:about="">
        <dc:format>image/svg+xml</dc:format>
        <dc:type
           rdf:resource="http://purl.org/dc/dcmitype/StillImage" />
        <dc:title />
      </cc:Work>
    </rdf:RDF>
  </metadata>
  <g
     style="fill:#ffffff"
     id="layer1"
     transform="translate(-1.7327025,-19.359663)">
    <g
       style="fill:#ffffff"
       id="g100"
       transform="matrix(0.02645833,0,0,0.02645833,-62.700354,-4.9991196)">
      <g
         style="fill:#ffffff"
         stroke="none"
         fill="#000000"
         id="layer101">
        <path
           style="fill:#ffffff"
           id="path10"
           d="m 5670,11049 c -30,-5 -111,-15 -180,-23 -202,-24 -324,-55 -477,-120 -44,-19 -130,-51 -190,-71 -59,-20 -118,-43 -131,-51 -26,-17 -179,-102 -264,-146 -32,-17 -58,-34 -58,-38 0,-4 -10,-10 -22,-14 -13,-3 -47,-23 -76,-45 -29,-22 -61,-42 -71,-46 -10,-3 -37,-24 -60,-46 -24,-22 -59,-50 -79,-63 -21,-13 -48,-36 -62,-50 -13,-15 -59,-47 -101,-72 -43,-25 -101,-70 -129,-100 -28,-30 -56,-54 -60,-54 -11,0 -60,-48 -60,-58 0,-4 -24,-33 -52,-64 -63,-67 -100,-115 -110,-140 -4,-10 -12,-18 -17,-18 -13,0 -51,-73 -51,-96 0,-9 -9,-27 -20,-41 -11,-14 -20,-31 -20,-38 0,-6 -18,-46 -40,-89 -22,-42 -40,-87 -40,-100 0,-13 -17,-58 -39,-100 -21,-42 -41,-95 -45,-117 -4,-23 -13,-54 -21,-70 -33,-62 -12,-115 58,-149 23,-12 58,-32 77,-46 19,-14 47,-28 63,-31 15,-3 27,-9 27,-13 0,-11 75,-40 103,-40 14,0 263,90 275,110 20,36 -220,-30 -252,-30 -13,0 -31,9 -42,21 -10,11 -37,29 -59,40 -22,11 -62,32 -90,47 l -50,28 2,53 c 2,35 11,68 27,95 13,22 32,70 42,106 9,36 23,74 30,85 7,11 22,50 34,86 11,37 28,77 39,90 10,13 24,42 32,63 18,50 155,216 269,326 88,85 164,150 174,150 3,0 22,15 42,34 19,18 60,46 90,62 30,15 71,45 91,66 20,21 42,38 47,38 5,0 22,12 37,26 15,14 64,47 110,74 46,27 102,62 125,79 23,17 47,31 54,31 8,0 23,8 34,18 12,10 37,25 56,32 19,8 57,29 85,47 27,18 59,33 70,33 12,0 25,4 30,9 6,5 39,19 75,31 36,13 83,31 105,40 123,55 192,78 296,100 48,10 124,28 170,38 170,40 341,45 899,24 215,-8 282,-14 306,-26 17,-9 87,-23 155,-32 143,-18 224,-32 257,-45 13,-5 37,-9 55,-9 18,-1 61,-8 97,-16 36,-8 128,-28 205,-44 77,-16 154,-34 170,-39 17,-5 69,-21 118,-36 l 87,-26 v -36 c 0,-22 -8,-45 -19,-57 -11,-12 -28,-47 -39,-78 -22,-64 -67,-128 -89,-128 -26,0 -93,63 -101,94 -9,35 -37,44 -81,26 -21,-8 -53,-7 -137,5 -165,23 -176,25 -212,42 -18,8 -39,12 -47,10 -7,-3 -31,1 -53,8 -22,8 -96,19 -164,25 -192,17 -265,26 -375,45 -92,16 -118,17 -250,6 -82,-7 -191,-19 -243,-28 -52,-8 -122,-19 -155,-23 -73,-9 -176,-36 -231,-61 -23,-10 -66,-21 -95,-24 -30,-4 -83,-20 -119,-37 -153,-71 -218,-105 -263,-136 -26,-18 -59,-37 -72,-42 -32,-12 -125,-80 -125,-91 0,-5 -10,-13 -22,-18 -13,-5 -39,-20 -58,-33 -19,-13 -52,-32 -72,-41 -21,-10 -42,-26 -47,-35 -5,-10 -26,-27 -48,-38 -86,-47 -118,-67 -133,-83 -8,-9 -30,-26 -47,-37 -18,-11 -79,-63 -135,-115 -113,-105 -229,-206 -296,-258 -24,-19 -54,-50 -67,-70 -12,-20 -43,-57 -69,-82 -25,-26 -46,-50 -46,-53 0,-4 -28,-41 -63,-84 -34,-42 -71,-90 -81,-107 -11,-16 -33,-44 -49,-61 -46,-48 -77,-112 -68,-138 19,-52 106,-15 149,64 14,25 39,63 57,85 17,22 38,51 45,65 7,14 26,36 43,50 16,14 49,54 72,90 47,72 133,166 210,230 124,104 154,130 229,203 44,42 85,77 91,77 7,0 32,18 56,39 25,21 62,46 84,55 21,9 44,25 51,34 7,10 48,39 91,64 43,25 88,55 100,67 12,12 26,21 30,21 4,0 31,18 58,40 28,22 55,40 61,40 6,0 18,7 25,16 15,18 90,67 167,109 28,15 52,32 52,36 0,4 33,17 73,29 39,12 77,26 82,30 6,4 42,16 80,25 77,18 101,25 190,54 33,10 96,25 140,31 44,7 105,16 135,21 267,42 306,45 327,28 12,-10 54,-14 157,-15 78,-1 177,-7 221,-13 44,-6 135,-15 203,-20 67,-6 139,-15 160,-22 20,-6 48,-15 62,-20 14,-4 57,-13 95,-19 143,-25 220,-41 228,-49 12,-12 -21,-386 -34,-386 -4,0 -26,13 -49,28 -57,37 -85,30 -128,-31 -80,-115 -121,-169 -151,-201 -29,-31 -35,-33 -82,-29 -28,3 -54,10 -58,15 -10,17 -48,33 -75,33 -35,0 -94,-34 -137,-80 -20,-21 -47,-41 -60,-45 -13,-4 -40,-19 -59,-34 -30,-22 -47,-27 -118,-30 -79,-3 -86,-1 -133,28 -48,30 -89,40 -89,23 0,-5 -16,-34 -35,-66 -28,-47 -35,-69 -35,-112 0,-29 -4,-56 -10,-59 -5,-3 -26,10 -45,29 -19,20 -48,39 -63,42 -15,4 -32,11 -39,16 -17,14 -115,48 -136,48 -27,0 -94,-40 -101,-59 -27,-77 -64,-156 -77,-164 -12,-8 -24,-5 -47,11 -38,27 -93,28 -149,2 -54,-24 -121,-77 -129,-102 -3,-11 -18,-34 -33,-51 -32,-37 -51,-86 -51,-131 0,-22 -11,-43 -36,-70 l -35,-38 -22,20 c -63,56 -97,51 -97,-17 0,-46 -25,-151 -53,-226 -17,-45 -74,-101 -112,-111 -20,-5 -49,5 -118,40 -51,25 -97,46 -102,46 -6,0 -23,14 -38,30 -16,17 -38,30 -49,30 -18,0 -19,-5 -15,-72 6,-85 42,-293 62,-358 7,-25 16,-70 20,-100 6,-48 4,-58 -14,-74 -23,-21 -54,-19 -162,10 -56,14 -72,15 -97,5 -37,-15 -41,-31 -52,-206 -5,-71 -15,-155 -23,-185 l -14,-55 -6,35 c -3,19 -11,80 -17,135 -11,93 -23,148 -55,250 -7,22 -16,58 -20,80 -4,22 -13,54 -20,71 -8,16 -23,68 -33,115 -10,46 -28,102 -39,124 -11,22 -26,69 -32,105 -7,36 -21,92 -31,125 -80,255 -416.2068,582.5003 -227.011,414.5654 22.8317,-20.266 7.8152,28.3695 -32.1848,28.3695 -72,0 69.1958,-177.9349 112.1958,-309.9349 13,-40 30,-98 37,-128 7,-30 23,-78 35,-106 13,-29 30,-83 39,-122 9,-39 21,-83 27,-99 6,-15 19,-59 29,-98 10,-38 25,-90 35,-115 9,-25 25,-81 35,-125 9,-44 24,-105 33,-135 49,-172 47,-450 -4,-584 -11,-27 -19,-59 -19,-71 0,-12 -8,-33 -19,-46 -10,-13 -26,-40 -36,-59 -9,-19 -28,-46 -40,-60 -49,-53 -52,-155 -5,-130 11,6 20,15 20,21 0,5 12,22 27,37 32,32 86,126 119,207 43,105 49,115 66,115 10,0 23,-10 29,-22 7,-13 23,-36 35,-51 13,-16 24,-36 24,-45 0,-10 9,-34 20,-55 16,-30 20,-56 20,-137 0,-128 -13,-154 -132,-276 l -89,-91 7,-152 7,-151 h 32 c 18,0 41,9 54,21 12,12 25,19 28,15 5,-5 -2,-54 -28,-191 -5,-27 -9,-104 -10,-170 0,-66 -1,-142 -2,-170 -2,-38 1,-50 13,-50 9,0 16,11 18,25 5,43 43,184 53,195 14,14 11,41 -7,56 -22,18 -15,169 11,218 14,26 16,46 11,89 -4,31 -11,61 -17,67 -5,5 -27,9 -49,9 l -40,-1 v 90 91 l 79,76 c 67,64 80,81 86,118 4,23 10,42 14,42 18,0 31,58 31,141 0,72 -4,97 -18,117 -10,15 -29,52 -41,82 -13,30 -36,69 -51,85 -44,46 -65,119 -52,175 6,25 16,74 22,110 7,36 20,104 31,152 10,48 19,113 19,143 0,30 7,82 17,115 15,54 19,60 43,60 15,0 38,-8 51,-18 96,-74 205,-43 216,61 4,30 0,63 -10,90 -15,41 -21,70 -37,172 -4,28 -15,76 -24,108 -9,32 -16,70 -16,85 0,16 -5,33 -12,40 -9,9 -6,12 15,12 29,0 66,-19 107,-56 14,-12 55,-32 92,-45 65,-22 67,-22 113,-5 47,18 96,63 120,110 7,13 19,72 26,130 l 13,106 h 62 c 57,0 64,3 88,30 14,17 33,56 42,88 19,67 21,71 37,97 49,81 86,125 103,125 6,0 33,9 58,21 53,23 94,19 122,-12 17,-19 42,-23 80,-13 16,4 25,19 34,52 12,45 30,93 52,139 14,29 85,60 100,45 7,-7 25,-12 40,-12 18,0 42,-12 65,-34 21,-18 48,-36 60,-40 12,-4 31,-18 42,-32 23,-29 68,-32 87,-6 7,9 14,32 14,50 0,18 4,52 9,75 6,23 13,59 16,80 6,36 8,38 32,32 15,-3 42,-19 62,-36 32,-26 42,-29 106,-29 46,1 81,7 101,18 74,40 152,91 187,124 21,19 55,41 75,47 36,12 41,11 100,-24 42,-26 69,-35 84,-31 34,8 148,125 170,173 10,23 29,55 42,70 12,15 26,36 29,46 16,44 76,32 108,-20 13,-21 25,-62 28,-92 8,-70 28,-85 71,-53 l 31,23 37,-21 c 34,-20 40,-21 97,-9 39,8 72,22 93,41 18,15 38,28 44,28 6,0 32,20 58,44 25,24 56,48 67,54 19,11 22,8 32,-33 6,-24 11,-59 11,-77 0,-18 7,-44 15,-58 8,-14 19,-35 24,-47 7,-16 19,-23 38,-23 33,0 131,58 139,82 9,30 75,120 118,161 75,72 117,75 184,14 26,-23 68,-60 95,-80 27,-22 47,-47 47,-58 0,-16 7,-19 48,-19 36,0 54,5 66,19 10,11 31,23 47,26 16,4 35,12 42,19 49,48 139,81 177,66 26,-11 90,-106 90,-134 0,-23 55,-21 72,2 18,24 114,42 230,42 103,0 108,-3 108,-56 0,-26 17,-33 26,-10 6,14 -21,76 -38,87 -17,11 -278,0 -314,-13 -40,-14 -35,-18 -114,85 -32,42 -39,46 -77,47 -28,0 -63,-10 -101,-30 -33,-16 -66,-30 -74,-30 -8,0 -27,-13 -43,-30 -40,-42 -96,-43 -120,-2 -9,15 -44,45 -78,67 -34,21 -73,48 -87,61 -14,12 -42,29 -63,39 -31,14 -42,15 -66,6 -15,-7 -34,-23 -40,-35 -7,-12 -26,-30 -42,-40 -16,-9 -37,-34 -47,-54 -45,-95 -81,-139 -130,-159 -55,-23 -82,-14 -82,28 -1,13 -13,60 -28,104 -36,105 -52,109 -130,30 -66,-67 -105,-89 -184,-105 -52,-10 -62,-9 -108,12 l -51,23 7,59 c 3,33 10,73 15,90 5,17 9,62 9,100 0,84 20,186 36,186 21,0 39,-32 39,-69 0,-32 3,-36 28,-39 21,-3 36,6 67,39 22,24 40,48 40,54 0,5 16,28 35,50 19,22 35,47 35,56 0,9 11,32 24,52 31,46 46,98 46,163 0,44 -4,54 -30,77 -16,15 -33,27 -37,27 -5,0 -51,14 -103,30 -52,17 -124,37 -160,45 -36,9 -81,20 -100,25 -19,5 -62,14 -95,20 -33,6 -98,20 -145,31 -47,10 -95,19 -108,19 -13,0 -31,4 -40,9 -9,5 -80,16 -157,26 -77,9 -180,25 -230,36 -62,13 -164,22 -335,30 -135,5 -258,14 -275,18 -39,11 -345,11 -415,0 z" />
        <path
           style="fill:#ffffff"
           id="path12"
           d="m 9504,9769 c -6,-8 -15,-25 -19,-39 -4,-14 -16,-44 -27,-68 -12,-28 -18,-60 -16,-90 l 3,-47 35,4 c 19,1 44,8 55,13 10,6 43,11 73,11 49,0 55,3 79,34 22,29 24,36 12,44 -20,12 -20,12 -85,-21 -71,-36 -123,-48 -134,-30 -13,21 1,104 22,126 12,14 18,32 16,50 -2,22 -5,25 -14,13 z" />
        <path
           style="fill:#ffffff"
           id="path14"
           d="m 9659,9538 c -13,-18 -50,-59 -82,-91 -31,-32 -64,-72 -72,-87 -8,-16 -35,-58 -60,-93 -43,-61 -56,-97 -36,-97 5,0 21,25 37,56 16,31 39,63 51,71 13,9 23,23 23,33 0,9 10,29 23,43 12,14 40,47 62,73 22,26 53,61 69,76 20,20 26,32 19,39 -7,7 -18,0 -34,-23 z" />
        <path
           style="fill:#ffffff"
           id="path16"
           d="m 9373,9117 c -16,-35 -17,-149 -1,-165 13,-13 -4,-185 -29,-291 -19,-79 -13,-149 16,-190 l 22,-31 -21,-30 c -12,-16 -25,-30 -29,-30 -16,0 -97,-83 -116,-119 -55,-107 -77,-141 -94,-151 -11,-5 -25,-26 -31,-45 -6,-19 -15,-35 -18,-36 -4,0 -33,-2 -65,-4 -32,-3 -75,-9 -95,-15 -20,-5 -60,-10 -89,-10 -28,0 -54,-4 -57,-9 -3,-4 -41,-11 -85,-15 -57,-4 -122,-21 -225,-56 -79,-28 -153,-50 -165,-50 -11,0 -22,-4 -26,-9 -3,-5 -22,-15 -43,-22 -32,-10 -133,-63 -227,-118 -16,-10 -36,-30 -43,-44 -7,-15 -24,-35 -38,-44 -30,-19 -74,-92 -74,-121 0,-34 31,-27 63,13 15,19 31,35 35,35 4,0 41,33 82,73 54,53 95,83 145,106 39,18 100,48 136,67 37,18 78,34 93,34 15,0 43,8 64,19 20,10 82,26 137,35 55,10 116,24 135,32 19,7 69,18 110,23 41,6 98,15 125,21 58,12 157,22 233,23 35,0 48,3 40,9 -10,8 -10,9 0,6 8,-2 22,-30 33,-63 27,-81 50,-135 60,-135 4,0 10,-9 14,-20 3,-10 26,-49 51,-85 52,-76 47,-83 -41,-60 -33,8 -69,15 -81,15 -12,0 -46,8 -76,19 -90,32 -168,41 -349,41 -187,0 -367,-23 -404,-50 -5,-4 -37,-13 -70,-20 -74,-16 -105,-34 -105,-62 0,-20 3,-20 68,-14 37,4 71,11 77,17 5,5 19,9 31,9 13,0 25,4 28,9 5,8 46,14 236,32 136,13 126,13 262,5 65,-4 129,-11 144,-16 14,-6 45,-10 69,-10 24,0 70,-10 102,-22 46,-18 77,-22 150,-21 117,1 134,6 156,43 22,36 17,46 -25,56 -18,3 -48,22 -67,41 -40,40 -104,145 -121,200 -26,79 -104,143 -176,143 -27,0 -31,12 -9,30 8,7 15,18 15,25 0,20 70,115 130,175 95,96 141,152 138,168 -3,15 -12,22 -62,44 -53,23 -58,121 -10,173 29,31 31,58 5,76 -21,15 -24,25 -22,81 1,22 9,45 20,55 10,10 21,30 25,45 3,14 17,40 31,56 31,37 32,54 3,50 -17,-2 -24,-11 -26,-30 -4,-30 -9,-33 -32,-18 -10,6 -17,32 -20,82 -5,68 -6,71 -17,45 z" />
        <path
           id="path18"
           style="stroke-width:0.1;fill:#ffffff"
           transform="matrix(10.000001,0,0,10.000001,2369.7775,188.94313)"
           d="m 316.75977,73.181641 c -1.6875,-0.075 -3.28711,0.223828 -4.53711,0.923828 -0.9,0.5 -4.40118,1.7 -7.70118,2.5 -3.3,0.9 -7.6,2.101172 -9.5,2.701172 -1.9,0.6 -6.6,1.3 -10.5,1.5 -3.8,0.2 -7.9,0.798828 -9,1.298828 -3.3,1.4 -12.2,3 -17.5,3 -2.7,0 -5.89921,0.40039 -7.19921,0.90039 -1.3,0.6 -6.10079,2.100001 -10.80079,3.5 -13.89999,4.2 -15.4,4.69961 -17.5,5.59961 -1.1,0.5 -4.5,1.6 -7.5,2.5 -3,0.8 -7.3,2.600391 -9.5,3.900391 -2.2,1.4 -8,4.59922 -13,7.19922 -25.19994,13.2 -26.09843,13.80078 -28.89843,18.80078 -2.5,4.2 -5.00157,17.49961 -6.60157,34.59961 -0.4,4.7 -1.49882,10.3 -2.29882,12.5 -0.9,2.2 -1.79961,5.20117 -2.09961,6.70117 -0.4,1.5 -1.5,2.89883 -2.5,3.29883 -1.1,0.3 -3.40078,1.89961 -5.30078,3.59961 -1.8,1.6 -7.80079,5.2 -13.30079,8 -5.49999,2.7 -11.8,6.30039 -14,7.90039 -5.89999,4.2 -19.499215,11.99961 -22.199214,12.59961 -1.3,0.4 -2.800782,1.40039 -3.300782,2.40039 -0.5,1 -5.099224,4.3 -10.199218,7.5 -10.899999,6.6 -17.99961,11.8 -22.09961,16 -16.499993,17 -18.001173,18.9 -28.701172,37 -1.399999,2.3 -3.999219,6.39961 -5.699218,9.09961 -1.8,2.6 -3.300782,5.39961 -3.300782,6.09961 0,0.7 -1.898828,4.40117 -4.298828,8.20117 -4.099999,6.5 -5.399609,9.70039 -7.599609,18.90039 -0.6000005,2 -1.5011721,5.89961 -2.201172,8.59961 -2.6999992,10.8 -1.2003876,42.49961 2.599609,54.09961 0.7,2.2 1.800391,6.2 2.400391,9 0.7,2.7 1.8,5.7 2.5,6.5 0.7,0.8 2.1,3.90039 3,6.90039 1,3 2.601172,7.3 3.701172,9.5 1,2.3 2.498828,6.00039 3.298828,8.40039 0.9,2.3 2.600391,5.7 3.900391,7.5 2.599999,3.5 4.599609,9.49922 5.599609,17.19922 0.5,4.5 0.901172,5.00078 3.201172,5.30078 2.2,0.3 3.198828,1.4 5.298828,6 1.5,3.1 3.9,8.1 5.5,11 1.5,2.9 3.4,7.9 4,11 0.7,3.1 1.701172,7.29883 2.201172,9.29883 1.2,4.6 1.2,25.7 0,29.5 -0.5,1.6 -1.401172,4.90039 -2.201172,7.40039 -1.2,4.4 -6.698829,14.60039 -9.798828,18.40039 -0.9,1 -3.500391,2.69883 -5.900391,3.79883 -2.299999,1.1 -4.700781,2.90039 -5.300781,3.90039 -0.5,1.1 -1.598828,1.90039 -2.298828,1.90039 -1.3,0 -2.601563,2 -2.601563,4 0,0.5 2.101563,1.59961 4.601563,2.59961 2.5,0.9 6.39961,2.99961 8.599609,4.59961 2.2,1.6 5.89961,3.80078 8.09961,4.80078 7.099994,3.1 9.60039,5.9 10.90039,12 1,4.9 0.899609,5.9 -0.90039,9.5 -4.8,9.5 -6.900001,13.20039 -9,15.90039 -2.8,3.5 -6.300782,12.8 -6.300782,16.5 0,5.6 2.500392,9.5 7.400391,11.5 2.5,1 5.299609,2.69961 6.099609,3.59961 0.9,1 3.600001,2.3 6,3 2.4,0.7 5.201563,2.09961 6.101563,3.09961 0.9,1.1 2.099609,1.90039 2.599609,1.90039 0.5,0 5.398834,3.10039 10.798828,6.90039 10.399999,7.2 16.200762,12.89961 22.300786,22.09961 5.09999,7.7 12.99922,15.89961 21.19921,22.09961 10.3,7.7 11.30118,9 13.20118,17 1.3,6.1 1.40039,8.20078 0.40039,13.80078 -0.7,3.6 -2.30123,8.49883 -3.70117,10.79883 -2.3,4 -3.29922,12.00156 -1.69922,13.60156 0.3,0.4 1.99922,0.69922 3.69922,0.69922 2.69994,0 3.40078,-0.60078 5.30078,-4.80078 1.2,-2.6 2.70039,-6.19961 3.40039,-8.09961 1.4,-3.7 7.19883,-9.59883 12.29883,-12.29883 4.89994,-2.7 10.60117,-3.2 17.20117,-1.5 6.7,1.7 8.69922,0.99844 8.19922,-3.10156 -0.4,-3.4 -6.60001,-5.19922 -18,-5.19922 -8.9,0 -12.70045,1.00078 -16.40039,4.30078 l -2.19922,1.79883 -1.20118,-8.5 c -1.6,-11.3 -4.1,-15.2 -13.5,-20.5 -3.9,-2.3 -8.69966,-5.6 -10.5996,-7.5 -7.7,-7.5 -13.99883,-14.90039 -15.29883,-17.90039 -0.7,-1.8 -1.90123,-3.89922 -2.70117,-4.69922 -0.8,-0.8 -2.1004,-2.80039 -2.9004,-4.40039 -0.8,-1.6 -2.599996,-3.4 -3.999996,-4 -2.699999,-1.2 -2.598444,-1.10039 -17.898437,-10.90039 -5.699999,-3.7 -10.800391,-6.69922 -11.400391,-6.69922 -0.6,0 -1.799609,-0.60039 -2.599609,-1.40039 -2.1,-1.9 -8.901172,-5.59961 -10.201172,-5.59961 -0.6,0 -1.7,-0.60039 -2.5,-1.40039 -0.7,-0.8 -1.899609,-1.59883 -2.599609,-1.79883 -2.7,-0.9 -1.00039,-8.20156 4.099609,-17.60156 2.8,-5.1 5.099609,-9.6 5.099609,-10 0,-0.4 1.600001,-3.19922 3.5,-6.19922 5.4,-8.3 4.700776,-14.09961 -2.699218,-23.09961 -0.7,-0.8 -5.100782,-4.10117 -9.800782,-7.20117 -4.699999,-3.1 -9.298437,-6.2 -10.398437,-7 -1.7,-1.2 -1.399999,-1.69922 5,-8.19922 8.799999,-9 9.49961,-9.9 12.099609,-16.5 3.5,-9 4.4,-14.99961 4.5,-29.09961 0.2,-14.7 -1.400781,-26.20078 -4.300781,-32.30078 -1.1,-2.2 -1.900391,-4.40039 -1.900391,-4.90039 0,-1.6 -7.099219,-15.9 -11.699218,-23.5 -4.7,-7.8 -9.300782,-17.39961 -9.300782,-19.59961 0,-0.7 -2,-5.40039 -4.5,-10.40039 -2.499999,-5 -4.5,-9.69844 -4.5,-10.39844 0,-0.7 -0.898437,-3.10078 -1.898437,-5.30078 -1.1,-2.2 -2.4,-5.8 -3,-8 -0.5,-2.2 -2.1,-7.8 -3.5,-12.5 -1.5,-5.1 -3.001563,-13.49922 -3.601563,-21.19922 -1.199999,-13.9 -0.498437,-20.50078 3.101563,-31.30078 1.1,-3.3 2.698437,-8.2 3.398437,-11 1.6,-5.9 7.900391,-20.00039 9.400391,-20.90039 0.5,-0.4 2.201172,-3.20039 3.701172,-6.40039 1.6,-3.1 4.299609,-7.79883 6.099609,-10.29883 1.8,-2.6 3.298828,-5.09961 3.298828,-5.59961 0,-0.6 0.701563,-1.60078 1.601563,-2.30078 0.8,-0.8 2.098437,-2.8 2.898437,-4.5 0.7,-1.8 3.200391,-4.69961 5.400391,-6.59961 2.3,-1.8 4.99961,-4.70039 6.099609,-6.40039 2.8,-4.4 6.000006,-7.5 12.5,-12 3.2,-2.2 7.500001,-5.49922 9.5,-7.19922 2.1,-1.8 4.000391,-3.30078 4.400391,-3.30078 0.3,0 3.49961,-1.8 7.099609,-4 3.6,-2.2 6.900391,-4 7.400391,-4 0.5,0 1.100785,-0.40078 1.300785,-0.80078 0.6,-1.5 7.49961,-6.19922 9.09961,-6.19922 0.9,0 3.2,-1.3 5,-3 1.9,-1.6 3.90039,-3 4.40039,-3 0.6,0 1.79882,-0.9 2.79882,-2 1.9,-2.1 15.40157,-9 17.60157,-9 1,0 6.79843,-3.6 7.89843,-5 0.3,-0.3 2.2004,-1.40039 4.4004,-2.40039 2.09994,-1 4.5,-3.09922 5.5,-4.69922 0.89994,-1.6 1.90039,-2.90039 2.40039,-2.90039 0.4,0 0.69921,-0.90039 0.69921,-1.90039 0,-1.1 0.5,-2.29961 1,-2.59961 0.6,-0.3 1,-1.9 1,-3.5 0,-1.6 0.4004,-3.89922 0.9004,-5.19922 1.09994,-2.7 2.5,-12.09961 4,-26.09961 1.09994,-9.4 1.30039,-10.10039 5.40039,-15.40039 2.3,-3 5.79921,-6.30117 7.69921,-7.20117 1.9,-1 7.3,-3.69961 12,-6.09961 4.7,-2.3 9.2,-4.70039 10,-5.40039 0.8,-0.7 5.3,-2.79961 10,-4.59961 4.7,-1.8 10.8,-4.3 13.5,-5.5 2.8,-1.2 6.3,-2.600392 8,-2.900392 1.6,-0.4 4.90079,-1.598828 7.30079,-2.798828 2.8,-1.2 9.19961,-2.500391 17.59961,-3.400391 7.19994,-0.8 15.90078,-2.30039 19.30078,-3.40039 3.4,-1.1 7.59882,-2 9.29882,-2 1.6,0 8.90118,-1.19961 16.20118,-2.59961 8,-1.499999 14.99882,-2.399609 17.79882,-2.099609 12.4,1.4 30.1,5.598828 32.5,7.798828 0.5,0.5 1.40157,0.900391 2.10157,0.900391 2.7,0 23.89883,11.100781 27.29883,14.300781 6.19994,5.8 16.90078,13.59961 21.30078,15.59961 8.4,3.7 9.39883,4.19922 14.79882,7.19922 3,1.7 7.5,4.30078 10,5.80078 6.5,4.1 20.10157,11.09961 21.60157,11.09961 0.6,0 2.2,1.1 3.5,2.5 2.3,2.3 5.39844,3.6 15.89843,6.5 2.5,0.7 5.50118,1.6 6.70118,2 1.2,0.5 5.79922,1.4 10.19922,2 4.49994,0.6 10.00117,1.8 12.20117,2.5 7.5,2.7 14.79883,1.39961 28.29883,-4.90039 2.79994,-1.3 9.39961,-3.79961 14.5996,-5.59961 5.2,-1.8 10.4,-3.80039 11.5,-4.40039 2.1,-1.1 8.60001,-1.99961 26,-3.59961 5.5,-0.5 10.7,-0.99922 11.5,-1.19922 0.8,-0.1 5.1,0.5 9.5,1.5 4.4,1 9.90079,2.19883 12.30079,2.79883 2.4,0.5 6.59961,2.70156 9.59961,5.10156 2.99994,2.4 7.5996,5.89883 10.0996,7.79883 2.6,1.9 5.7004,4.4 6.9004,5.5 2.39994,2.4 14.90117,12.90078 19.20117,16.30078 1.6,1.3 4.59922,3.19883 6.69922,4.29883 2.3,1.2 4.39921,3.30117 5.19921,5.20117 2.7,6.1 4.60001,7.8 15,13 1.7,0.8 5.7,2.29883 9,3.29883 3.3,1 6.2,2.00078 6.5,2.30078 2.1,2.4 15.90001,6.6 34.5,10.5 3.9,0.8 10.2,2.30039 14,3.40039 3.9,1.1 13.50001,2.49922 21.5,3.19922 9.4,0.7 16.1,1.8 19,3 2.5,1 6.5,2.6 9,3.5 2.5,0.9 5.4,2.5 6.5,3.5 1.1,1 3.00118,2.10039 4.20118,2.40039 1.6,0.5 2.59922,2.20039 3.69922,5.90039 1.39994,4.7 1.3996,5.79961 0.0996,10.09961 -2.6,8.6 -1.69999,19.79961 3.5,41.09961 1.8,7.7 1.70078,7.8 -4.69921,7 -3.2,-0.4 -8.4,-0.80039 -11.5,-0.90039 l -5.80079,-0.29883 v 3.89844 c 0,5.4 4.90118,13.90039 12.20118,21.40039 5.3,5.4 5.90039,6.40078 4.90039,8.30078 -0.6,1.1 -2.10039,2.59922 -3.40039,3.19922 -1.2,0.7 -3,2.29961 -4,3.59961 -4.3,5.4 -8.60084,4.90078 -24.30078,-2.69922 -4.6,-2.2 -9.39883,-4 -10.79883,-4 -2.2,0 -2.60157,0.50078 -2.60157,2.80078 0,1.7 0.90157,3.69883 2.10157,4.79883 1.2,1 4.59922,5.20117 7.69922,9.20117 3,4.1 6.10039,7.59844 6.90039,7.89844 0.7,0.3 1.29882,1.50117 1.29882,2.70117 -0.1,1.6 -1.69966,2.8 -7.5996,5.5 -4.1,1.9 -9.79922,3.79922 -12.69922,4.19922 -2.9,0.4 -6.80084,1.00039 -8.80078,1.40039 -3.6,0.7 -3.7004,0.60078 -4.4004,-3.19922 -0.3,-2.1 -1.99921,-6.70078 -3.69921,-10.30078 -3.8,-8.3 -4.19922,-9.29922 -7.19922,-16.19922 -1.3,-3.1 -3.20078,-6.4 -4.30078,-7.5 -1,-1 -2.70079,-3.60117 -3.80079,-5.70117 -2.3,-4.5 -12.9,-11.9 -18.5,-13 -1.9,-0.3 -4.79843,-1.29961 -6.39843,-2.09961 -1.9,-1 -7.8,-1.90039 -16,-2.40039 -13,-0.9 -13.20157,-0.80039 -21.60157,2.09961 -9.89999,3.5 -16.09843,3.40039 -21.89843,-0.59961 -2,-1.3 -4.70157,-2.69961 -6.10157,-3.09961 -2.5,-0.8 -13.89966,-9.00078 -14.0996,-10.30078 -0.1,-0.4 -0.3004,-2.29883 -0.4004,-4.29883 -0.1,-2.1 -0.49882,-4.40078 -0.79882,-5.30078 -1.1,-2.8 -2.70118,-1.69922 -2.70118,1.80078 0,5.6 -4.19843,5.80039 -18.39843,0.90039 -3.8,-1.2 -8.00123,-2.30078 -9.20117,-2.30078 -1.3,0 -3.29961,-0.40039 -4.59961,-0.90039 -1.3,-0.5 -5.90079,-1.89961 -10.30079,-3.09961 -13.29999,-3.8 -16.89966,-5.09961 -18.5996,-6.59961 -0.9,-0.8 -3.80006,-1.90039 -6.5,-2.40039 -2.7,-0.5 -6.7004,-1.4 -8.9004,-2 -10.79999,-3.1 -33.09843,-5.4 -44.89843,-4.5 -7.2,0.5 -9.6,1.1 -12,3 -1.7,1.3 -4.40157,2.69961 -6.10157,3.09961 -1.6,0.3 -3.9,1.40039 -5,2.40039 -1.1,0.9 -4.29921,3 -7.19921,4.5 -6.6,3.5 -10.3,7.60078 -12.5,13.80078 -4.1,11.4 -14.80045,24.69922 -19.90039,24.69922 -1.5,0 -9.7004,3 -16.4004,6 -4.3,1.9 -19.09966,4.40039 -20.5996,3.40039 -0.9,-0.5 3.40039,-9.09961 7.40039,-14.59961 2,-2.7 3.00078,-8.80039 4.30078,-26.90039 0.7,-9.4 -0.40039,-14.79961 -3.90039,-18.59961 -3.5,-3.8 -5.00118,-2.90078 -8.70118,5.19922 -2.2,4.8 -4,7.5 -5,7.5 -0.9,0 -3.09882,1.90078 -4.79882,4.30078 -4.6,6 -12.10118,12.19922 -16.70118,13.69922 -2.2,0.7 -6,2.20078 -8.5,3.30078 -3.8,1.7 -6.6,2.09922 -19,2.19922 -10.19999,0 -15.2,0.50039 -17,1.40039 -1.4,0.8 -5.39966,4.49883 -9.0996,8.29883 -3.6,3.7 -6.99922,6.80078 -7.69922,6.80078 -0.7,0 -1.20118,0.49961 -1.20118,1.09961 0,0.5 -1.6,3.09961 -3.5,5.59961 -2,2.6 -3.79921,5.80117 -4.19921,7.20117 -0.3,1.4 -1.69922,3.90039 -3.19922,5.40039 -2.3,2.5 -2.60157,3.59883 -2.60157,10.29883 0,6 0.30118,7.7 1.70118,8.5 1.5,0.8 9.79882,12.2 9.79882,13.5 0,0.3 2,2.6 4.5,5 8.3,8.4 15.30079,18.20117 16.30079,23.20117 0.6,2.6 1.60078,7.29844 2.30078,10.39844 0.9,4.4 0.99966,7.1 0.0996,11 -0.6,2.9 -1.40118,10.90078 -1.70118,17.80078 -0.8,14.4 -2.1,17.8 -8.5,22.5 -2.3,1.7 -5.79882,5.3 -7.79882,8 -1.9,2.8 -4.60084,6.1 -5.80078,7.5 -2.8,3.1 -5.20006,9.80078 -6,16.80078 -0.4,2.9 -1.10006,5.49883 -1.5,5.79883 -1,0.6 -6.89922,-3.19922 -8.19922,-5.19922 -0.4,-0.7 -2.50118,-3.19961 -4.70118,-5.59961 -2.2,-2.4 -5.89921,-7.1 -8.19921,-10.5 -2.4,-3.5 -5.1,-6.50078 -6,-6.80078 -0.9,-0.3 -2.00079,-1.49961 -2.30079,-2.59961 -0.4,-1.1 -1.89882,-2.69961 -3.29882,-3.59961 -1.5,-0.9 -3.7,-2.60117 -5,-3.70117 -1.8,-1.6 -3.70118,-1.99961 -10.20118,-2.09961 -7.69999,0 -7.99843,0.10039 -11.39843,3.40039 -2,1.9 -3.60157,4.29883 -3.60157,5.29883 0,0.9 -1.19921,4.3 -2.69921,7.5 -3,6.5 -5.20079,13.70156 -5.30079,17.10156 0,1.2 -1.1,4.49922 -2.5,7.19922 -2.5,5 -2.5,5 -7.5,5 -2.8,0 -5.89843,-0.49922 -6.89843,-1.19922 -2.2,-1.4 -5.10157,-0.40078 -5.10157,1.69922 0,2.1 4.70079,3.9 14.30079,5.5 9.29999,1.5 9.40078,1.50078 11.80078,-7.19922 0.9,-3.5 2.39922,-8.80078 3.19922,-11.80078 2.2,-7.8 7.99921,-20.00039 11.19921,-23.40039 2.4,-2.6 3.1,-2.80039 7.5,-2.40039 4,0.4 5.9004,1.30039 9.4004,4.40039 2.39994,2.1 4.6996,4.70078 5.0996,5.80078 0.4,1 3.0004,4.39961 5.9004,7.59961 2.79994,3.1 6.40039,7.30078 7.90039,9.30078 1.5,2.1 3.3,3.69922 4,3.69922 0.7,0 2.59921,1.39961 4.19921,3.09961 1.7,1.7 4.10079,4.00117 5.30079,5.20117 2.1,2 7.4,7.3 13.5,13.5 1.2,1.2 2.5,2.19922 3,2.19922 0.5,0 2.20078,0.89961 3.80078,2.09961 3.4,2.4 8.19922,2.20117 8.69922,-0.29883 0.2,-1.1 -2.19961,-3.7 -7.09961,-7.5 -9.9,-7.7 -11.10039,-9.90117 -10.40039,-17.70117 1,-10.1 3.30039,-15.09922 10.40039,-22.69922 3.6,-3.7 7.29922,-7.10039 8.19922,-7.40039 0.99994,-0.3 3.20078,-2.70078 4.80078,-5.30078 2.3,-3.6 3.19882,-6.39922 3.79882,-11.69922 0.3,-3.8 1.10118,-9 1.70118,-11.5 5,-22.5 1.30039,-41.80078 -10.59961,-55.80078 -2.2,-2.6 -5.90157,-6.89961 -8.10157,-9.59961 -2.2,-2.6 -4.89843,-5.70039 -5.89843,-6.90039 -1,-1.2 -3.60123,-4.89961 -5.70117,-8.09961 -4.9,-7.4 -5.1004,-11.40039 -0.9004,-17.90039 1.7,-2.6 3,-5.29883 3,-5.79883 0,-2.1 23.4004,-25.90039 25.4004,-25.90039 0.69994,0 2.8,0.69961 4.5,1.59961 2.59994,1.3 4.90039,1.5 11.40039,1 10.39999,-0.9 26.60078,-6.59883 31.80078,-11.29883 1.4,-1.3 2.99961,-2.30078 3.59961,-2.30078 1,0 8.79922,-7.7 14.69922,-14.5 2.19994,-2.5 2.6996,-2.8 3.5996,-1.5 0.5,0.8 0.8,2.9 0.5,4.5 -0.2,1.7 -0.9,6.4 -1.5,10.5 -1.4,9.4 -6.29882,20.10039 -10.29882,22.40039 -1.6,0.9 -3.10039,2.49961 -3.40039,3.59961 -0.3,1.3 -1.99922,2.39922 -4.69922,3.19922 -2.2,0.7 -5.40157,2 -7.10157,3 -1.6,1 -3.99921,1.80078 -5.19921,1.80078 -3.6,0 -7.30045,2.19922 -7.90039,4.69922 -1.6,6.1 6.89961,7.20117 16.0996,2.20117 4.9,-2.7 6.2004,-3.00039 10.4004,-2.40039 3.09994,0.4 6.50117,0.0992 9.70117,-0.80078 2.7,-0.8 8.49843,-1.99961 12.89843,-2.59961 7.8,-1.2 9.70001,-1.59961 24,-6.09961 6.4,-2 13.5,-6.89922 13.5,-9.19922 0,-0.5 1.1,-2.00039 2.5,-3.40039 1.4,-1.3 4.40118,-6.40117 6.70118,-11.20117 5,-10.1 9.2,-14.69922 16.5,-17.69922 2.9,-1.2 6.20039,-3.40078 7.40039,-4.80078 1.1,-1.5 2.99883,-2.69922 4.29883,-2.69922 1.29994,0 4.10117,-0.60039 6.20117,-1.40039 6.3,-2.1 27.59844,-0.99883 41.39843,2.20117 2.5,0.6 7.7,1.59883 11.5,2.29883 3.9,0.6 7.5,1.50039 8,1.90039 0.6,0.5 4.30079,1.8 8.30079,3 3.9,1.2 7.19921,2.50039 7.19921,2.90039 0,0.4 2.60079,1.59961 5.80079,2.59961 3.1,1 6.7,2.19961 8,2.59961 1.3,0.5 5.20078,0.90039 8.80078,0.90039 4.1,0 7.29883,0.6 8.79883,1.5 1.19994,0.8 5.80117,1.79961 10.20117,2.09961 7.1,0.6 8.19843,1.00039 11.39843,3.90039 1.9,1.8 4.90118,4.00039 6.70118,4.90039 1.8,0.9 4.2,2.60039 5.5,3.90039 1.3,1.2 3.39882,2.69883 4.79882,3.29883 12.6,5.7 12.50157,5.59961 20.60157,5.09961 4.4,-0.3 11.49883,-1.19961 15.79883,-2.09961 4.39994,-0.8 8.4,-1.19883 9,-0.79883 0.59994,0.3 4.6996,0.89883 9.0996,1.29883 10.6,1 17.50157,2.30117 20.10157,3.70117 5,2.7 18.89883,21.89844 21.29883,29.39844 0.69994,2 1.90117,4.20078 2.70117,4.80078 1,0.9 1.39843,3.39961 1.39843,8.59961 0,6.2 0.30157,7.7 2.10157,9.5 2,2 2.79883,2.1 10.79883,1.5 7.39994,-0.6 9.2996,-1.2 13.5996,-4 2.8,-1.8 7.10118,-3.80039 9.70118,-4.40039 3.9,-1 13.79882,-6.49922 13.79882,-7.69922 0,-0.2 0.30157,-1.00078 0.60157,-1.80078 0.3,-1 -1.5,-3.59961 -5,-7.09961 -3.1,-3 -5.60157,-6 -5.60157,-6.5 0,-0.9 5.7004,0.10078 10.4004,1.80078 1.39994,0.6 3.40078,0.70039 4.30078,0.40039 2.6,-1 9.79961,-7.60156 17.09961,-15.60156 1.9,-2 3.80078,-3.69922 4.30078,-3.69922 2.6,0 0.19921,-3.6 -5.80078,-8.5 -6.6,-5.4 -13.30079,-13.60039 -13.30079,-16.40039 0,-1 1.00079,-1.19922 4.30079,-0.69922 12.09999,1.8 12.80078,1.79966 14.80078,0.0996 1.6,-1.5 1.89843,-3.20039 1.89843,-9.40039 0,-7.5 -1.8,-18.59922 -4.5,-26.69922 -1.3,-4.1 -0.3996,-10.60078 1.9004,-14.30078 0.49994,-0.7 1.10039,-4.19961 1.40039,-7.59961 0.4,-5.8 0.3,-6.49922 -2,-8.69922 -1.4,-1.3 -2.89922,-3.80156 -3.19922,-5.60156 -0.6,-2.4 -1.40039,-3.29883 -3.40039,-3.79883 -1.5,-0.3 -5.99961,-2.09961 -10.09961,-4.09961 -10.7,-5.1 -15.00157,-6.10078 -29.60157,-6.80078 -8.39999,-0.5 -16.5,-1.59922 -23,-3.19922 -9.59999,-2.3 -13.49922,-3.20156 -23.69921,-5.10156 -2.5,-0.5 -5.80079,-1.59961 -7.30079,-2.59961 -1.5,-1 -4.99882,-2.39922 -7.79882,-3.19922 -2.9,-0.9 -7.10039,-2.4 -9.40039,-3.5 -2.4,-1 -4.89922,-1.90039 -5.69922,-1.90039 -3.1,0 -9.70157,-4.89922 -16.60157,-12.19922 -6.29999,-6.8 -8.49843,-8.80039 -9.39843,-8.90039 -0.6,0 -3.00123,-1.49922 -5.20117,-3.19922 -2.3,-1.8 -7.00006,-5.4 -10.5,-8 -3.5,-2.7 -8.6004,-7.2 -11.4004,-10 -10.29999,-10.7 -20.09922,-16.90156 -30.19921,-19.10156 -3.7,-0.8 -9.70079,-2.19961 -13.30079,-3.09961 -6.49999,-1.6 -8.5,-1.60039 -21,0.59961 -3,0.5 -9.8,1.30078 -15,1.80078 -10.29999,1 -14.6,1.90078 -20,4.30078 -1.9,0.9 -5.5,2.29883 -8,3.29883 -2.5,0.9 -5.4,2.5 -6.5,3.5 -2.9,2.6 -5.99882,4 -8.79882,4 -1.4,0 -3.80084,0.7 -5.30078,1.5 -3.7,1.9 -10.09883,1.9 -13.79883,0 -1.5,-0.8 -4.60078,-1.5 -6.80078,-1.5 -7,0 -18.20079,-2.2 -20.30079,-4 -1.1,-1 -3.6,-2.1 -5.5,-2.5 -3.6,-0.8 -6.49966,-2.19961 -8.5996,-4.09961 -0.7,-0.6 -3.49883,-1.90078 -6.29883,-2.80078 -2.8,-0.9 -7.10157,-2.99922 -9.60157,-4.69922 -2.5,-1.7 -6.1,-3.5 -8,-4 -1.9,-0.6 -4.49882,-1.99922 -5.79882,-3.19922 -2.2,-2.2 -18.49961,-10.70117 -20.59961,-10.70117 -0.6,0 -2.50078,-1.30039 -4.30078,-2.90039 -1.8,-1.5 -4.90079,-3.59961 -6.80079,-4.59961 -1.9,-1 -5.5,-3.79922 -8,-6.19922 -2.6,-2.5 -8.39966,-6.200782 -13.5996,-8.800781 -5,-2.5 -9.69883,-5.100391 -10.29883,-5.900391 -0.7,-0.8 -3.80039,-2.199609 -6.90039,-3.099609 -3.1,-1 -8.40118,-2.5 -11.70118,-3.5 -7.09999,-2.1 -13.5,-3.7 -19,-4.5 -2.1,-0.4 -5.19921,-1.29961 -6.69921,-2.09961 -1.6,-0.8 -3.375,-1.249218 -5.0625,-1.324218 z" />
        <path
           style="fill:#ffffff"
           id="path20"
           d="m 8910,7545 c 0,-29 126,-127 186,-145 32,-9 46,-8 76,4 20,9 41,23 46,33 9,14 14,15 41,3 17,-7 31,-16 31,-21 0,-5 21,-9 47,-9 40,0 50,-4 72,-31 23,-27 29,-29 52,-21 14,6 36,25 47,44 45.6833,116.6441 212.3857,96.5548 225.3857,111.5548 12,15 10.843,22.7524 6.843,26.7524 C 9729.2287,7551.3072 9515,7481 9496,7450 c -24,-42 -52,-47 -77,-16 -16,20 -29,26 -60,26 -21,0 -39,4 -39,10 0,15 -55,40 -87,40 -34,-1 -58,-17 -67,-48 -10,-32 -42,-28 -106,13 -30,19 -59,35 -65,35 -7,0 -22,11 -35,25 -26,28 -50,33 -50,10 z" />
        <path
           style="fill:#ffffff"
           id="path22"
           d="m 9726,7534 c -8,-20 1,-34 20,-34 8,0 14,10 14,25 0,28 -24,34 -34,9 z" />
        <path
           style="fill:#ffffff"
           id="path24"
           d="m 9733.3857,7513.5548 c 0,-15 114.6143,-83.5548 178.6143,-83.5548 43,0 59,3 56,13 -6,16 -66,21 -83,7 -10,-8 -151.6143,63.5548 -151.6143,63.5548 -24,13 0,12 0,0 z" />
        <path
           id="path26"
           style="stroke-width:0.1;fill:#ffffff"
           transform="matrix(10.000001,0,0,10.000001,2369.7775,188.94313)"
           d="m 289.99023,626.19336 c -0.50756,-0.0161 -1.18125,0.44961 -1.96875,1.41211 -1.6,1.9 -0.3996,8.69922 1.9004,11.69922 0.99998,1.3 2.1,3.3 2.5,4.5 1.49998,4.8 14.60078,14.20039 27.80078,19.90039 5.7,2.5 11.59922,5.2 13.19922,6 6.29998,3.1 42.60078,2.70078 61.30078,-0.69922 5.5,-1 7.4,-0.9 15.5,1 8.4,2 17.89961,6.50039 22.09961,10.40039 0.6,0.7 2.99921,2.49922 5.19921,4.19922 2.2,1.6 5.1,4.1 6.5,5.5 4.4,4.3 13.30079,9 17.30079,9 1.5,0 4,0.60039 5.5,1.40039 2.6,1.3 11.20078,2.60039 19.80078,2.90039 4.2,0.2 8.39843,2.79922 8.39843,5.19922 0,0.7 0.6004,1.80039 1.4004,2.40039 0.69998,0.6 1.60039,2.40039 1.90039,3.90039 0.4,1.5 1.49961,4.2 2.59961,6 1.19998,1.7 2.90039,3.19922 3.90039,3.19922 2.4,0 6.69921,-4.60078 8.69921,-9.30078 1.4,-3.5 1.90079,-3.79922 4.30079,-3.19922 1.5,0.4 11.69961,0.69961 22.59961,0.59961 19.09998,-0.1 20.20117,3.9e-4 26.20117,2.40039 3.4,1.4 7.59883,2.5 9.29883,2.5 1.59998,0 3.2996,0.5 3.5996,1 0.8,1.3 8.1,1.3 10.5,0 1.1,-0.6 3.20118,-3.49961 4.70118,-6.59961 1.5,-3 3.5,-6 4.5,-6.5 1.8,-1 15.49961,-1.10117 17.09961,-0.20117 0.5,0.3 2.90078,0.60078 5.30078,0.80078 3.4,0.2 5.19922,-0.29961 7.69922,-2.09961 1.7,-1.3 4.79921,-3.40078 6.69921,-4.80078 1.9,-1.3 4.6004,-3.5 5.9004,-5 3.79998,-4.1 7.7,-3.19883 16.5,3.70117 2.69998,2.1 6.20117,4.49883 7.70117,5.29883 2.7,1.3 2.89883,1.30117 4.29883,-0.79883 0.79998,-1.3 2.00117,-4.30117 2.70117,-6.70117 1.2,-4.2 1.39843,-4.29883 4.89843,-3.79883 1.9,0.2 5.70118,1.39961 8.20118,2.59961 5.2,2.3 7.99882,2.59961 10.79882,1.09961 1.4,-0.7 2.50079,-0.70038 3.80079,0.0996 1.4,0.9 3.40078,0.90038 8.30078,-0.0996 3.5,-0.7 8.69843,-1.49922 11.39843,-1.69922 2.8,-0.3 5.50157,-0.90039 6.10157,-1.40039 0.6,-0.5 4.49961,-1.2 8.59961,-1.5 5.6,-0.5 8.09882,-0.29961 10.29882,0.90039 0.41757,0.21414 0.93582,0.40508 1.49219,0.58594 0.26723,-0.73544 0.57508,-1.46624 0.81641,-2.20508 -0.55775,-0.33925 -1.10726,-0.75345 -1.70703,-1.28125 -1.7,-1.4 -3.10157,-3.20039 -3.10157,-3.90039 0,-1.5 -3.79962,-2.70039 -4.5996,-1.40039 -0.3,0.5 -0.2004,1.80039 0.0996,2.90039 0.6,1.8 0.20157,2 -3.89843,2 -2.5,0 -4.60157,-0.4 -4.60157,-1 0,-1.5 -3.8,-5 -5.5,-5 -2,0 -1.9,1.7 0.5,5 l 2,2.69922 -3.79882,0.70117 c -2,0.3 -8.0008,0.89883 -13.30078,1.29883 -8.9,0.5 -9.89922,0.40039 -12.69922,-1.59961 -4.2,-3 -5.90078,-2.59883 -5.30078,1.20117 0.19998,1.5 -4.99883,0.59883 -6.79883,-1.20117 -2.5,-2.5 -6.70078,-4.69961 -10.80078,-5.59961 -3.3,-0.7 -3.30079,-0.59922 -3.30079,3.30078 0,2.1 -0.49962,5.29844 -1.0996,6.89844 l -1,3.10156 -4.79883,-2.30078 c -2.6,-1.3 -6.10078,-3.90078 -7.80078,-5.80078 -1.6,-1.9 -3.60041,-3.69844 -4.40039,-3.89844 -2.3,-0.9 -7.69922,1.79961 -13.19922,6.59961 -9.6,8.1 -12.1004,8.99883 -26.90039,8.79883 -7.7,-0.1 -13.70041,0.20039 -14.90039,0.90039 -1.2,0.6 -2.79883,2.70117 -3.79883,4.70117 -3.3,7.3 -5.10157,9.19922 -8.60157,9.19922 -1.8,0 -5.79843,-1.3 -8.89843,-3 -3.1,-1.6 -7.30039,-3.19961 -9.40039,-3.59961 -2,-0.4 -4.90039,-1.3 -6.40039,-2 -3.7,-1.9 -6.10079,-1.70039 -8.80079,0.59961 -2.6,2.3 -4.59922,2.39961 -22.69921,1.09961 -14.1,-1.1 -16.30079,-0.79961 -16.30079,2.40039 0,1.2 -1.49843,3.89961 -3.39843,6.09961 -2.9,3.3 -3.70078,3.70078 -5.30078,2.80078 -1,-0.6 -1.89961,-2 -2.09961,-3 -0.7,-4.5 -1.3,-6.29961 -2.5,-7.59961 -0.8,-0.7 -2.0008,-2.60117 -2.80078,-4.20117 -0.8,-1.6 -2.1004,-3.19961 -2.9004,-3.59961 -2.3,-1.2 -12.7,-3.2 -20.5,-4 -8.09999,-0.9 -10.7,-1.60078 -15.5,-4.30078 -1.9,-1.1 -5.19843,-2.99961 -7.39843,-4.09961 -2.1,-1.2 -5.5,-3.89961 -7.5,-6.09961 -4.5,-5 -16.30078,-13.5 -18.80078,-13.5 -1.1,0 -2.30079,-0.40078 -2.80079,-0.80078 -0.6,-0.5 -3.39843,-1.8 -6.39843,-3 -4.5,-1.8 -7.40119,-2.19922 -17.70117,-2.19922 -6.7,0 -13.39883,0.40039 -14.79883,0.90039 -1.3,0.6 -8.90079,1.49922 -16.80078,2.19922 -13.5,1.2 -14.70079,1.10117 -20.80079,-0.79883 -3.6,-1.1 -8.7,-2.60078 -11.5,-3.30078 -2.7,-0.7 -5.49962,-1.69922 -6.0996,-2.19922 -0.7,-0.5 -3.89922,-1.90117 -7.19922,-3.20117 -3.4,-1.3 -7.2,-3.49883 -8.5,-4.79883 -1.3,-1.2 -5.1008,-4.2 -8.30078,-6.5 -3.6,-2.6 -6.59883,-5.7 -7.79883,-8 -1,-2.1 -2.20119,-4.6 -2.70117,-5.5 -0.5,-1 -0.9004,-2.90078 -0.9004,-4.30078 0,-1.575 -0.37866,-2.39146 -1.03125,-2.41211 z" />
        <path
           style="fill:#ffffff"
           id="path28"
           d="m 9902,7355 c -19,-40 -15,-57 11,-53 18,2 22,9 22,37 0,42 -17,50 -33,16 z" />
        <path
           id="path30"
           style="stroke-width:0.1;fill:#ffffff"
           transform="matrix(10.000001,0,0,10.000001,2369.7775,188.94313)"
           d="m 734.88477,698.16016 c -0.54078,0.006 -0.86329,0.40234 -0.86329,1.24609 0,1.4 7.8,9.19844 11.5,11.39844 2,1.2 5.5,1.70078 5.5,0.80078 0,-0.3 -1.69921,-1.29922 -3.69921,-2.19922 -2,-1 -5.10079,-3.80078 -6.80079,-6.30078 -2.2,-3.09375 -4.44702,-4.95928 -5.63671,-4.94531 z" />
        <path
           style="fill:#ffffff"
           id="path32"
           d="m 8656,6965 c -22,-20 -26,-32 -26,-78 0,-58 8,-71 51,-82 l 26,-6 -5,79 c -3,52 -1,82 7,86 17,11 13,26 -8,26 -10,0 -30,-11 -45,-25 z" />
        <path
           id="path34"
           style="stroke-width:0.1;fill:#ffffff"
           transform="matrix(10.000001,0,0,10.000001,2369.7775,188.94313)"
           d="m 703.72266,323.40625 c -1.2,0.4 -1.50118,1.69922 -3.70118,14.69922 -0.7,4.1 -2.39921,10.7 -3.69921,14.5 -1.4,3.9 -3.10079,9.40078 -3.80079,12.30078 -0.8,2.9 -1.99882,6.29961 -2.79882,7.59961 -2.4,3.6 -3.69961,9.79883 -4.59961,21.79883 -0.42135,5.618 -0.48943,9.0804 -0.22071,11.01172 1.7527,1.72435 0.35731,1.4887 1.16797,1.61718 0.90233,1.37613 1.73314,2.96972 1.49805,4.68555 -0.0518,0.37871 -0.23345,0.72897 -0.31055,1.10352 -0.009,0.0453 0.0559,0.0808 0.0586,0.12695 0.008,0.1886 -0.012,0.37743 -0.0195,0.56641 0.004,0.21104 0.008,0.42191 0.0117,0.63281 0.0135,0.85318 -0.11719,1.56466 -0.32812,2.16601 0.0673,0.36789 0.13558,0.73583 0.19336,1.10547 0.79436,2.29092 2.04203,6.1792 2.50781,7.61524 0.38057,1.24358 0.66712,2.41881 0.78516,3.64648 l 2.05468,4.02344 0.20118,54 c 0.1,57.69999 0.20039,58.69922 5.40039,72.69922 1.6,4.3 2.89843,8.60156 2.89843,9.60156 0,1 0.40079,2.19922 0.80079,2.69922 0.5,0.6 1.89921,3.7 3.19921,7 1.3,3.3 3.20079,6.99922 4.30079,8.19922 1.9,2.1 4.90039,9.40078 8.90039,21.80078 1,3.3 2.6,7.6 3.5,9.5 4.7,10.5 9.29882,26.80078 9.29882,32.80078 0,6.4 -1.99921,15.3 -4.69921,20.5 -0.7,1.5 -1.10079,3.19922 -0.80079,3.69922 0.3,0.6 1.7,1 3,1 2,0 2.90079,-0.99922 4.80079,-5.19922 1.3,-2.9 2.99921,-7.00117 3.69921,-9.20117 1.6,-4.9 0.90118,-19.59961 -1.29882,-25.09961 -0.8,-2.2 -2.70118,-7.1 -4.20118,-11 -1.5,-3.8 -3.5,-9.7 -4.5,-13 -0.9,-3.3 -3.09843,-9.29922 -4.89843,-13.19922 -1.7,-3.9 -3.10157,-7.60117 -3.10157,-8.20117 0,-0.5 -2.7,-6.60039 -6,-13.40039 -3.2,-6.9 -6.19962,-13.69883 -6.5996,-15.29883 -0.4,-1.6 -1.50002,-4.79961 -2.5,-7.09961 -1,-2.3 -2.3004,-8.6 -2.9004,-14 -1.2,-10 -0.8,-14.30117 3,-32.20117 1,-4.5 0.90157,-6.1 -0.39843,-9.5 -1.2,-3 -1.30117,-4.99961 -0.70117,-7.59961 0.59998,-1.9 0.79998,-9.3 0.5,-16.5 -0.8,-22.7 -0.59922,-24.59922 2.30078,-27.69922 3.2,-3.4 6.99922,-3.60078 13.19922,-0.80078 2.39998,1.1 5.00117,2 5.70117,2 1.8,0 3.39843,-4.09961 3.39843,-8.59961 0,-1.9 1.3,-5.89961 3,-9.09961 3.8,-7 4,-12.10078 0.5,-15.30078 -2.4,-2.3 -5.79843,-2.40039 -10.89843,-0.40039 -1.7,0.6 -1.80078,0.40117 -1.30078,-2.29883 1,-5.1 -0.70079,-6.00156 -11.30079,-6.60156 -5.19999,-0.3 -10.19962,-0.79961 -11.0996,-1.09961 -1.2,-0.5 -1.99883,-3.10039 -2.79883,-9.40039 -1.4,-10.1 -0.60078,-15.4 3.19922,-21 1.4,-2 3.4,-6.79922 4.5,-10.69922 2,-6.7 2.49961,-9 4.09961,-19.5 0.39998,-2.5 1.60078,-6.50039 2.80078,-8.90039 l 2.09961,-4.29883 -3,-4.40039 c -1.6,-2.5 -3.49961,-4.29961 -4.09961,-4.09961 z m -1.57618,87.44922 c 1.35,-0.05 3.075,3.9e-4 4.875,0.15039 6.4,0.6 6.50079,0.7 8.30079,4.5 1.8,3.7 2,3.79961 5.5,3.09961 2,-0.4 5.29921,-0.80039 7.19921,-0.90039 3.4,-0.1 3.50038,-3.9e-4 3.4004,3.59961 -0.2,4.7 -2.7004,8.7 -6.4004,10 -3.4,1.1 -4.99843,5.90039 -2.89843,8.40039 1,1.3 0.99881,1.7 -0.20117,2.5 -1.9,1.2 -5.6004,1.10038 -6.4004,-0.0996 -0.4,-0.6 -1.49962,-0.6 -3.0996,0 -3,1.2 -3.2004,1.20038 -6.4004,-0.0996 -3.4,-1.4 -4,-2.60078 -4,-8.30078 0,-2.6 -0.79921,-8.59922 -1.69921,-13.19922 -1.1,-5.3 -1.40079,-8.70117 -0.80079,-9.20117 0.3,-0.25 1.275,-0.39922 2.625,-0.44922 z" />
        <path
           style="fill:#ffffff"
           id="path36"
           d="m 9042,6917 c 3,-21 7,-22 120,-22 77,0 122,5 129,12 18,18 2,21 -134,26 -117,5 -118,5 -115,-16 z" />
        <path
           id="path38"
           style="stroke-width:0.1;fill:#ffffff"
           transform="matrix(10.000001,0,0,10.000001,2369.7775,188.94313)"
           d="m 161.99609,422.28906 c -1.56836,0.0145 -3.22461,0.0547 -4.97461,0.11719 -15.19999,0.6 -20.5,1.49844 -27,4.39844 -2.5,1.1 -6.79921,2.60078 -9.69921,3.30078 -8.7,2 -17.60079,8.8 -26.800786,20.5 -2.199999,2.7 -4.999219,5.80078 -6.199218,6.80078 -1.2,1 -2.500391,2.8 -2.900391,4 -0.4,1.2 -1.500391,3.29922 -2.400391,4.69922 -0.999999,1.4 -2.498437,4.90039 -3.398437,7.90039 -0.9,2.9 -1.900391,5.9 -2.400391,6.5 -1.7,2.2 -3.201172,9.49883 -3.201172,15.29883 0,3.3 -0.499609,8.50039 -1.099609,11.40039 -1.4,7.4 0.701172,31.80039 3.201172,37.40039 1,2.2 2.498437,6.00039 3.398437,8.40039 1.6,4.6 6.800392,13.19922 11.400391,18.69922 3.9,4.7 7.800782,9.60078 9.800781,12.30078 2.300004,3.1 10.699224,11.49961 22.199224,22.09961 4.99998,4.7 9.40117,9.30078 9.70117,10.30078 0.3,0.9 1.79883,2.39922 3.29883,3.19922 1.59998,0.8 3.4,2.89922 4,4.69922 2.49998,6.7 5.70039,13.2 7.40039,15.5 3.2,4 6.59961,3.10117 13.59961,-3.79883 3.29998,-3.3 6.0996,-6.7 6.0996,-7.5 0,-0.8 1.40157,-2.30078 3.10157,-3.30078 3.8,-2.3 6.69961,-6.49883 12.09961,-17.29883 2.3,-4.7 2.29882,-6.50078 -0.20118,-7.30078 -2.7,-0.9 -6.4,1.80039 -8,5.90039 -0.7,1.9 -2.39921,3.9 -3.69921,4.5 -1.2,0.6 -2.30079,1.49961 -2.30079,2.09961 0,1.4 -2.69882,4.69922 -9.29882,11.19922 -6.1,6 -8.70118,7.20039 -8.70118,3.90039 0,-1.1 -0.4,-2.29961 -1,-2.59961 -0.5,-0.3 -1,-1.49961 -1,-2.59961 0,-1 -0.29882,-1.90039 -0.79882,-1.90039 -0.4,0 -1.50039,-1.70078 -2.40039,-3.80078 -1.7,-3.9 -13.00079,-15.59961 -20.30079,-21.09961 -12.99999,-9.7 -35.599996,-39.69961 -40.499996,-53.59961 -2.299999,-6.5 -2.398828,-8.29922 -2.298828,-25.69922 0.1,-21.7 1.89883,-32.30039 6.798828,-40.90039 5,-8.9 6.200782,-10.59961 9.300782,-13.59961 1.699999,-1.7 3.199214,-3.6 3.199214,-4 0,-0.5 3.6,-4.6 8,-9 7,-7.1 8.80079,-8.40078 13.80079,-9.80078 7.39999,-2 19.1,-5.49961 22,-6.59961 1.3,-0.5 8.5,-0.90039 16,-0.90039 12.99999,0 13.99961,0.0992 19.09961,2.69922 5.79998,3 17.20039,13.80078 19.90039,18.80078 1.2,2.2 1.59921,5.69922 1.69921,12.69922 0,5.7 0.4,9.9 1,10 1.6,0.5 4.4,-9.2 4.5,-15.5 0,-7.2 -4.59962,-18.89883 -9.0996,-22.79883 -1.6,-1.4 -2.9004,-2.99961 -2.9004,-3.59961 0,-1 -5.5,-5.60039 -10,-8.40039 -4.375,-2.7125 -11.04687,-3.81797 -22.02539,-3.7168 z" />
        <path
           style="fill:#ffffff"
           id="path40"
           d="m 5227,6403 c -4,-3 -60.5094,-52.6184 -60.5094,-58.6184 0,-6 58.5094,36.6184 65.5094,43.6184 6,6 50.6184,79.4004 48.6184,82.4004 -3,3 0,0 -53.6184,-67.4004 z" />
        <path
           style="fill:#ffffff"
           id="path42"
           d="m 8456,6365 c -13,-13 -15,-41 -12,-173 3,-86 7,-164 10,-173 8,-19 -35,-182 -62,-234 -11,-22 -25,-59 -32,-82 -7,-24 -21,-50 -32,-59 -23,-21 -23,-40 0,-49 12,-4 26,4 49,32 18,21 37,47 42,58 46,97 64,147 77,218 8,45 24,119 35,163 12,54 19,118 19,188 0,94 -2,106 -19,116 -28,14 -57,12 -75,-5 z" />
        <path
           style="fill:#ffffff"
           id="path44"
           d="m 5136,6318 c -28,-25 -39,-43 -43,-74 l -5,-40 68,-2 c 37,-1 69,-4 72,-6 2,-3 1,-28 -3,-56 -5,-37 -16,-62 -37,-86 -22,-25 -29,-40 -24,-58 5,-20 -6,-36 -69,-96 -77,-75 -125,-110 -151,-110 -8,0 -38,-21 -66,-47 -27,-27 -60,-54 -73,-61 -13,-7 -36,-23 -51,-37 -15,-14 -32,-25 -38,-25 -7,0 -26,-15 -44,-33 -47,-49 -42,-107 9,-107 5,0 7,10 4,23 -5,18 3,32 37,63 24,22 58,47 75,54 17,8 38,26 47,41 14,24 40,49 103,100 11,9 48,27 82,40 49,19 65,30 75,54 13,29 99,115 117,115 14,0 22,47 11,65 -6,12 -3,36 9,77 31,99 29,105 -38,113 -32,3 -65,7 -73,8 -28,4 -23,44 9,68 25,18 48,49 37,49 -1,0 -19,-15 -40,-32 z" />
        <path
           id="path46"
           style="stroke-width:0.1;fill:#ffffff"
           transform="matrix(10.000001,0,0,10.000001,2369.7775,188.94313)"
           d="m 161.84375,454.27148 c -11.04055,-0.13669 -24.5707,3.00938 -31.7207,8.23438 -5.1,3.8 -12.10157,15.69922 -12.10157,20.69922 0,1.8 -1.79962,5.80039 -3.0996,6.90039 -0.3,0.3 -1.59883,4.39922 -2.79883,9.19922 -2.4,9.3 -2.30078,11.50039 1.19922,27.90039 1.7,7.9 3.50078,11.79961 10.30078,22.59961 6.1,9.7 9.19922,13.60117 12.19922,15.20117 1.2,0.6 2.19921,1.79922 2.19921,2.69922 0,0.8 3.40157,3.70039 7.60157,6.40039 4.2,2.8 7.79843,5 7.89843,5 0.2,0 1.0004,-0.29961 1.9004,-0.59961 1.39998,-0.5 1.40038,-0.9 -0.0996,-3.5 -1,-1.6 -2.20079,-2.90039 -2.80079,-2.90039 -1.3,0 -19.5,-17.60039 -19.5,-18.90039 0,-0.5 -0.7,-1.60039 -1.5,-2.40039 -0.8,-0.8 -2.6,-3.89883 -4,-6.79883 -1.5,-3 -3.79921,-7.49961 -5.19921,-10.09961 -1.3,-2.6 -2.90041,-7.3 -3.40039,-10.5 -0.5,-3.2 -1.20002,-7.50156 -1.5,-9.60156 -1.5,-8.8 2.40117,-20.79922 12.70117,-39.19922 3.9,-7.1 15.19844,-12.19961 27.89843,-12.59961 12.3,-0.4 13.80157,-0.20039 15.60157,2.59961 1.5,2.3 1.49881,2.80039 -0.70117,7.90039 l -2.19922,5.5 -2.80078,-1.90039 c -1.5,-1.1 -3.39883,-2 -4.29883,-2 -2.3,0 -2.10157,5.8 0.39843,9.5 2.8,4.1 6,11 6,13 0,1.3 -0.89921,1.50078 -4.69921,1.30078 l -4.69922,-0.30078 -0.61719,3.63281 c 0.0534,1.03745 -0.106,1.91353 -0.48633,2.64453 -0.91545,4.3385 -2.34859,5.34212 -4.39648,2.92188 -0.0692,-0.0865 -0.1146,-0.18239 -0.16407,-0.27735 -0.70022,0.0163 -1.40738,-0.22978 -2.11328,-0.4414 -0.34412,0.051 -0.64526,0.0333 -0.81836,-0.0957 -0.046,0.0129 -0.0905,0.0308 -0.13672,0.043 -0.75473,0.19805 -2.34597,-0.0643 -3.1914,-0.11914 -1.04133,-0.72196 -1.23268,-0.83978 -1.57422,-1.0664 -2.07404,0.26203 -4.884,0.40261 -9.00195,0.55859 -9.1,0.3 -9.50119,0.4 -12.20117,3.5 -3.3,3.6 -3.69883,6.29883 -1.29883,8.29883 0.9,0.7 3.1,4.5 5,8.5 1.9,3.9 4.59843,8.20039 5.89843,9.40039 1.5,1.4 2.5,3.49961 2.5,5.09961 0,3.4 0.60079,3.80078 6.80079,4.30078 2.7,0.3 5.89961,0.99883 7.09961,1.79883 1.79998,1.1 2.30078,1 3.80078,-0.5 1.7,-1.6 1.7,-1.9 0,-5 -1.5,-2.8 -1.59961,-3.79844 -0.59961,-5.89844 0.6,-1.5 1.89883,-2.80156 2.79883,-3.10156 0.89998,-0.2 2.60039,-3.1 3.90039,-6.5 1.3,-3.3 2.89921,-6.29961 3.69921,-6.59961 1.1,-0.4 1.5,-2.19961 1.5,-6.59961 v -6 h 4.4004 c 5.29998,0 6.80078,-1.50078 7.30078,-7.80078 0.4,-3.7 -0.2,-6.09922 -2.5,-11.19922 -2.9,-6.4 -2.99961,-6.70039 -1.59961,-11.90039 0.7,-3 2.09843,-6.19922 2.89843,-7.19922 1.1,-1.1 1.50079,-3.09961 1.30079,-5.59961 -0.3,-3.3 -0.80079,-4.00078 -4.30079,-5.80078 -3.15625,-1.53125 -7.6593,-2.27185 -12.67773,-2.33399 z" />
        <path
           style="fill:#ffffff"
           id="path48"
           d="m 7450,5824 c -6,-16 -18,-42 -26,-58 -8,-16 -14,-35 -14,-42 0,-7 -24,-20 -52,-29 -29,-9 -61,-20 -70,-26 -32,-17 -38,-9 -39,54 -1,58 -2,60 -11,27 -5,-19 -12,-50 -15,-68 -4,-26 -13,-37 -37,-47 -17,-7 -55,-23 -84,-36 -57,-24 -71,-20 -72,24 0,31 -30,81 -42,69 -10,-10 -2,-64 17,-113 3,-8 -6,-21 -22,-30 -16,-9 -59,-35 -98,-59 -42,-26 -71,-38 -73,-31 -2,6 -10,18 -18,25 -8,8 -14,19 -14,24 0,5 -9,17 -20,27 -19,18 -20,17 -20,-4 0,-12 9,-40 20,-62 18,-35 19,-41 6,-54 -8,-8 -19,-15 -24,-15 -14,0 -42,-35 -42,-53 0,-26 58,-32 80,-8 3,3 25,17 50,30 25,14 59,35 76,48 17,13 34,23 38,23 4,0 19,9 35,21 15,11 34,22 42,23 27,6 54,19 74,37 23,20 97,49 126,49 11,0 38,9 62,19 60,28 180,52 256,52 73,0 147,-21 201,-57 37,-26 86,-32 93,-11 2,6 2,26 0,43 -4,22 1,38 18,58 21,23 33,27 107,33 69,5 82,9 82,23 0,24 -20,30 -93,30 -50,0 -67,-4 -87,-22 -14,-13 -40,-33 -59,-46 -31,-23 -34,-23 -66,-8 -18,9 -38,16 -44,16 -14,0 -14,1 5,39 9,18 27,37 41,42 13,5 23,14 21,21 -6,18 -24,20 -39,6 -8,-8 -31,-22 -52,-32 -21,-9 -41,-25 -44,-34 -10,-27 -24,-32 -100,-32 h -71 l 14,62 c 10,40 11,65 5,71 -7,7 -14,0 -21,-19 z" />
        <path
           style="fill:#ffffff"
           id="path50"
           d="m 7835,5489 c -4,-5 -11,-52 -15,-102 -4,-51 -15,-112 -24,-137 -9,-25 -16,-51 -16,-57 0,-14 50,-19 50,-5 0,4 9,39 20,77 24,87 28,235 6,235 -8,0 -18,-5 -21,-11 z" />
        <path
           style="fill:#ffffff"
           id="path52"
           d="m 6189,4434 c -19,-6 -35,-72 -22,-85 5,-5 51,-19 103,-33 104,-26 122,-32 160,-49 32,-14 104,-62 124,-82 8,-9 34,-22 58,-31 52,-18 187,-83 208,-99 8,-7 50,-24 94,-39 43,-15 91,-33 107,-41 15,-8 227.8582,-54.9701 240.8582,-54.9701 l 52.9776,13.4906 L 7070,3975 c -14,8 -31,14 -38,15 -8,0 -68,27 -135,59 -155,75 -235,111 -248,111 -5,0 -36,16 -67,37 -65,41 -104,63 -252,140 -58,30 -109,58 -115,61 -18,12 79,20 100,9 11,-6 55,-12 99,-13 89,-3 167,-18 211,-41 17,-9 55,-29 87,-44 31,-15 59,-33 63,-38 11,-19 56,-13 62,9 3,11 7,20 9,20 3,0 30,-13 61,-30 46,-25 68,-30 122,-30 36,0 106,-5 155,-10 131,-15 360,-15 446,-1 41,8 95,24 120,37 25,13 60,27 79,30 19,4 44,16 56,26 14,13 28,17 45,13 56,-14 90,-17 90,-7 0,8 91,42 113,42 3,0 4,-15 1,-32 -3,-18 -1,-37 3,-43 18,-22 106,-55 148,-55 33,0 45,-4 45,-14 0,-8 -4,-17 -9,-20 -5,-3 -18,-26 -30,-52 -19,-40 -20,-50 -9,-80 6,-19 18,-34 25,-34 16,0 33,32 33,64 0,14 5,28 10,31 6,3 10,15 10,27 0,11 16,35 35,52 64,59 44,76 -85,76 -114,0 -123,4 -117,54 2,23 8,51 12,63 12,37 -27,39 -101,4 -51,-24 -80,-31 -128,-31 -68,0 -123,-15 -211,-56 -124,-58 -151,-64 -327,-70 -114,-5 -175,-4 -195,4 -15,6 -84,16 -153,21 -129,10 -181,23 -214,54 -21,18 -71,23 -81,7 -9,-15 -67,-12 -90,4 -11,7 -38,19 -60,26 -22,7 -58,22 -80,33 -29,15 -63,21 -125,22 -47,1 -119,5 -160,8 -41,3 -82,4 -91,1 z" />
        <path
           style="fill:#ffffff"
           id="path54"
           d="m 8029,4028 c -24,-17 -50,-38 -57,-45 -14,-14 -84,-18 -96,-6 -29,29 -150,42 -189,21 -12,-7 -47,-13 -77,-14 -73,-2 -310.3787,-40.4832 -325.3787,-56.4832 -12,-13 155.3787,10.4832 245.3787,28.4832 17,4 44,1 61,-6 21,-9 36,-10 52,-3 54,26 107,37 119,25 7,-7 18,-12 25,-12 8,0 33,-9 56,-20 23,-11 58,-23 78,-26 30,-5 38,-2 51,18 27,41 72,84 106,102 36,19 40,26 14,26 -11,0 -39,-14 -63,-32 z" />
      </g>
      <g
         style="fill:#ffffff"
         stroke="none"
         fill="#808080"
         id="layer102">
        <path
           style="fill:#ffffff"
           id="path57"
           d="m 4100,7080 c 0,-7 3,-10 7,-7 3,4 3,10 0,14 -4,3 -7,0 -7,-7 z" />
        <path
           style="fill:#ffffff"
           id="path59"
           d="m 9045,6900 c 3,-5 8,-10 11,-10 3,0 2,5 -1,10 -3,6 -8,10 -11,10 -3,0 -2,-4 1,-10 z" />
        <path
           style="fill:#ffffff"
           id="path61"
           d="m 7428,4213 c 7,-3 16,-2 19,1 4,3 -2,6 -13,5 -11,0 -14,-3 -6,-6 z" />
      </g>
    </g>
  </g>
</svg>
