<?xml version="1.0" encoding="UTF-8" standalone="no"?>
<svg
   xmlns:dc="http://purl.org/dc/elements/1.1/"
   xmlns:cc="http://creativecommons.org/ns#"
   xmlns:rdf="http://www.w3.org/1999/02/22-rdf-syntax-ns#"
   xmlns:svg="http://www.w3.org/2000/svg"
   xmlns="http://www.w3.org/2000/svg"
   xmlns:sodipodi="http://sodipodi.sourceforge.net/DTD/sodipodi-0.dtd"
   xmlns:inkscape="http://www.inkscape.org/namespaces/inkscape"
   inkscape:version="1.0 (4035a4f, 2020-05-01)"
   sodipodi:docname="iconfinder_at_sign_1378918.svg"
   xml:space="preserve"
   width="256px"
   viewBox="0 0 256 256"
   version="1.1"
   style="enable-background:new 0 0 256 256;"
   id="Layer_1"
   height="256px"><metadata
     id="metadata844"><rdf:RDF><cc:Work
         rdf:about=""><dc:format>image/svg+xml</dc:format><dc:type
           rdf:resource="http://purl.org/dc/dcmitype/StillImage" /></cc:Work></rdf:RDF></metadata><defs
     id="defs842" /><sodipodi:namedview
     inkscape:current-layer="Layer_1"
     inkscape:window-maximized="0"
     inkscape:window-y="23"
     inkscape:window-x="1920"
     inkscape:cy="128"
     inkscape:cx="128"
     inkscape:zoom="2.609375"
     showgrid="false"
     id="namedview840"
     inkscape:window-height="1395"
     inkscape:window-width="2235"
     inkscape:pageshadow="2"
     inkscape:pageopacity="0"
     guidetolerance="10"
     gridtolerance="10"
     objecttolerance="10"
     borderopacity="1"
     bordercolor="#666666"
     pagecolor="#ffffff" /><style
     id="style833"
     type="text/css">
	.st0{fill:none;stroke:#000000;stroke-width:4;stroke-linecap:round;stroke-linejoin:round;stroke-miterlimit:10;}
	.st1{fill:none;stroke:#000000;stroke-width:4;stroke-linecap:round;stroke-linejoin:round;}
</style><path
     style="stroke:#ffffff;stroke-opacity:1"
     id="path835"
     d="M38.176,84.753c-24.842,52.657-0.993,115.273,49.229,136.634c49.035,20.856,106.523-4.008,128.596-51.631  c22.377-48.279,3.058-108.753-44.942-132.299C95.817,1.097,46.705,66.162,46.016,69.769"
     class="st0" /><path
     style="stroke:#ffffff;stroke-opacity:1"
     id="path837"
     d="M156.178,100.569c-3.974,19.753-16.948,64.637-44.65,57.507c-27.702-7.13-11.922-68.845,17.533-62.183  c29.455,6.662,12.039,58.793,19.403,60.78c7.364,1.987,25.23-11.908,28.987-31.091c4.265-21.779-13.638-47.005-37.403-53.066  c-27.046-6.898-57.366,11.666-65.689,39.741c-7.324,24.703,3.75,52.158,25.948,65.222c24.346,14.327,56.956,8.331,75.741-14.961"
     class="st0" /></svg>
