<?xml version="1.0" encoding="UTF-8" standalone="no"?>
<svg
   xmlns:dc="http://purl.org/dc/elements/1.1/"
   xmlns:cc="http://creativecommons.org/ns#"
   xmlns:rdf="http://www.w3.org/1999/02/22-rdf-syntax-ns#"
   xmlns:svg="http://www.w3.org/2000/svg"
   xmlns="http://www.w3.org/2000/svg"
   xmlns:sodipodi="http://sodipodi.sourceforge.net/DTD/sodipodi-0.dtd"
   xmlns:inkscape="http://www.inkscape.org/namespaces/inkscape"
   inkscape:version="1.0 (4035a4f, 2020-05-01)"
   sodipodi:docname="iconfinder_github_1390302.svg"
   xml:space="preserve"
   width="256px"
   viewBox="0 0 256 256"
   version="1.1"
   style="enable-background:new 0 0 256 256;"
   id="Layer_1"
   height="256px"><metadata
     id="metadata856"><rdf:RDF><cc:Work
         rdf:about=""><dc:format>image/svg+xml</dc:format><dc:type
           rdf:resource="http://purl.org/dc/dcmitype/StillImage" /></cc:Work></rdf:RDF></metadata><defs
     id="defs854" /><sodipodi:namedview
     inkscape:current-layer="Layer_1"
     inkscape:window-maximized="0"
     inkscape:window-y="166"
     inkscape:window-x="0"
     inkscape:cy="128"
     inkscape:cx="128"
     inkscape:zoom="3.9375"
     showgrid="false"
     id="namedview852"
     inkscape:window-height="1023"
     inkscape:window-width="1338"
     inkscape:pageshadow="2"
     inkscape:pageopacity="0"
     guidetolerance="10"
     gridtolerance="10"
     objecttolerance="10"
     borderopacity="1"
     bordercolor="#666666"
     pagecolor="#ffffff" /><style
     id="style845"
     type="text/css">
	.st0{fill:none;stroke:#000000;stroke-width:4;stroke-linecap:round;stroke-linejoin:round;stroke-miterlimit:10;}
</style><path
     style="stroke:#ffffff;stroke-opacity:1"
     id="path847"
     d="M 128.0969,222.02661"
     class="st0" /><path
     style="stroke:#ffffff;stroke-opacity:1"
     id="path849"
     d="M 130.1607,226.97825 C 194.07151,223.39327 238.81717,174.51186 227.41029,109.56206 218.12317,56.679418 166.69417,21.260044 114.6822,28.351377 61.955304,35.539465 21.39725,84.759526 27.392651,138.30433 c 5.688453,48.23336 35.124607,70.78231 59.679238,80.96678 5.716421,2.3715 13.399681,5.83049 15.995451,5.27012 2.59574,-0.56037 1.76281,-15.06757 1.76281,-22.06114 -15.998427,2.47834 -21.472921,-3.87121 -24.872575,-7.62248 -3.856618,-4.2552 -6.124404,-8.63034 -10.062023,-15.05547 -3.93762,-6.42514 -11.061937,-4.91334 -11.811854,-8.63034 -0.749917,-3.71701 14.998552,-2.70915 26.310449,11.33847 8.187196,10.22579 16.926343,7.14475 21.622913,4.22093 0.15383,-1.62467 0.52592,-3.80468 1.43784,-6.23666 0.96692,-2.57711 3.62465,-4.13628 3.20771,-5.90004 -0.41699,-1.76376 -21.801915,-0.58154 -33.996723,-17.80594 -8.808134,-12.44107 -9.128124,-27.16698 -5.666437,-38.13053 2.321752,-7.35438 6.195402,-12.54085 8.832123,-15.53824 -1.010885,-2.179 -2.512763,-6.157044 -2.582756,-11.338473 -0.07602,-5.59264 1.553871,-9.87304 2.582756,-12.094372 3.491664,0.104818 8.53917,0.649064 14.248635,2.687973 5.468469,1.952233 9.592082,4.577721 12.331782,6.634772 4.97454,-1.684141 12.21682,-3.516439 21.08097,-3.695839 10.13402,-0.204596 18.34223,1.833306 23.66469,3.611178 2.61574,-2.35437 6.98634,-5.692418 13.16575,-7.979261 4.48856,-1.660961 8.51715,-2.246529 11.49889,-2.436009 1.14288,2.182026 3.07468,6.570267 3.16669,12.428984 0.085,5.393081 -1.42586,9.544477 -2.41577,11.755727 2.86671,3.4862 7.39328,9.95266 9.50108,19.14438 0.75092,3.27455 4.85653,21.146 -6.99534,36.52501 -12.4068,16.09962 -33.0568,13.63035 -33.98869,15.8537 -0.93193,2.22335 3.96361,6.34652 6.26539,14.994 2.30178,8.64747 1.32686,25.17544 1.32686,25.17544"
     class="st0" /></svg>
