<?xml version="1.0" encoding="UTF-8" standalone="no"?>
<svg
   xmlns:dc="http://purl.org/dc/elements/1.1/"
   xmlns:cc="http://creativecommons.org/ns#"
   xmlns:rdf="http://www.w3.org/1999/02/22-rdf-syntax-ns#"
   xmlns:svg="http://www.w3.org/2000/svg"
   xmlns="http://www.w3.org/2000/svg"
   xmlns:sodipodi="http://sodipodi.sourceforge.net/DTD/sodipodi-0.dtd"
   xmlns:inkscape="http://www.inkscape.org/namespaces/inkscape"
   inkscape:version="1.0 (4035a4f, 2020-05-01)"
   sodipodi:docname="iconfinder_linkedin_1164533.svg"
   xml:space="preserve"
   width="256px"
   viewBox="0 0 256 256"
   version="1.1"
   style="enable-background:new 0 0 256 256;"
   id="Layer_1"
   height="256px"><metadata
     id="metadata843"><rdf:RDF><cc:Work
         rdf:about=""><dc:format>image/svg+xml</dc:format><dc:type
           rdf:resource="http://purl.org/dc/dcmitype/StillImage" /></cc:Work></rdf:RDF></metadata><defs
     id="defs841" /><sodipodi:namedview
     inkscape:current-layer="Layer_1"
     inkscape:window-maximized="0"
     inkscape:window-y="166"
     inkscape:window-x="0"
     inkscape:cy="128"
     inkscape:cx="128"
     inkscape:zoom="2.609375"
     showgrid="false"
     id="namedview839"
     inkscape:window-height="984"
     inkscape:window-width="1363"
     inkscape:pageshadow="2"
     inkscape:pageopacity="0"
     guidetolerance="10"
     gridtolerance="10"
     objecttolerance="10"
     borderopacity="1"
     bordercolor="#666666"
     pagecolor="#ffffff" /><style
     id="style833"
     type="text/css">
	.st0{fill:none;stroke:#000000;stroke-width:4;stroke-linecap:round;stroke-linejoin:round;stroke-miterlimit:10;}
</style><path
     style="stroke:#ffffff;stroke-opacity:1"
     id="path835"
     d="m 34.379202,105.44838 c -15.253269,59.79158 21.49658,120.31898 77.300308,132.63426 54.48486,12.02439 108.72878,-25.26806 122.11826,-79.26637 C 247.37225,104.07506 215.69681,44.882468 161.75086,29.849943 77.296377,6.8602756 39.516633,84.386427 39.51263,88.281382"
     class="st0" /><path
     style="stroke:#ffffff;stroke-opacity:1"
     id="linkedin"
     d="m 106.66607,169.9731 c -0.35995,-21.3356 0.97789,-62.26254 -0.94489,-64.27945 -1.92278,-2.0169 -17.044095,-8.030115 -19.880758,-12.639603 -2.83768,-4.609487 -2.010773,-13.846708 8.125079,-13.858869 10.135849,-0.01216 11.417719,8.783163 8.779019,14.503466 -2.63971,5.720306 -17.582022,9.943646 -19.285837,12.268656 -1.703816,2.32502 -2.428722,69.20313 0,70.84402 2.428721,1.64089 32.922297,1.50406 35.619987,-0.5473 2.6987,-2.05137 -3.37361,-68.38218 0,-70.02408 3.37364,-1.6419 17.40505,-1.91454 19.15985,-1.09359 1.75382,0.82095 0.67494,7.79599 1.88879,8.47911 1.21386,0.68412 10.16985,-11.32811 24.28627,-9.57371 10.45881,1.29933 19.83475,10.25783 21.31859,19.14741 1.48383,8.88959 0.89892,35.01204 0.53996,52.51756 -7.1962,0.27365 -14.3924,0.68412 -21.58759,0.95777 -0.27001,-14.77103 1.0799,-34.05426 -0.80991,-44.17527 -1.88879,-10.12101 -22.32549,-9.98216 -22.12749,0 0.1981,9.98216 1.61881,44.17527 -2.6987,44.03845"
     class="st0" /></svg>
