<?xml version="1.0" encoding="UTF-8" standalone="no"?>
<svg
   xmlns:dc="http://purl.org/dc/elements/1.1/"
   xmlns:cc="http://creativecommons.org/ns#"
   xmlns:rdf="http://www.w3.org/1999/02/22-rdf-syntax-ns#"
   xmlns:svg="http://www.w3.org/2000/svg"
   xmlns="http://www.w3.org/2000/svg"
   xmlns:sodipodi="http://sodipodi.sourceforge.net/DTD/sodipodi-0.dtd"
   xmlns:inkscape="http://www.inkscape.org/namespaces/inkscape"
   inkscape:version="1.0 (4035a4f, 2020-05-01)"
   sodipodi:docname="iconfinder_twitter_1164528.svg"
   xml:space="preserve"
   width="256px"
   viewBox="0 0 256 256"
   version="1.1"
   style="enable-background:new 0 0 256 256;"
   id="Layer_1"
   height="256px"><metadata
     id="metadata857"><rdf:RDF><cc:Work
         rdf:about=""><dc:format>image/svg+xml</dc:format><dc:type
           rdf:resource="http://purl.org/dc/dcmitype/StillImage" /></cc:Work></rdf:RDF></metadata><defs
     id="defs855" /><sodipodi:namedview
     inkscape:current-layer="Layer_1"
     inkscape:window-maximized="0"
     inkscape:window-y="352"
     inkscape:window-x="2607"
     inkscape:cy="128"
     inkscape:cx="79.111111"
     inkscape:zoom="3.9375"
     showgrid="false"
     id="namedview853"
     inkscape:window-height="999"
     inkscape:window-width="1242"
     inkscape:pageshadow="2"
     inkscape:pageopacity="0"
     guidetolerance="10"
     gridtolerance="10"
     objecttolerance="10"
     borderopacity="1"
     bordercolor="#666666"
     pagecolor="#ffffff" /><style
     id="style846"
     type="text/css">
	.st0{fill:none;stroke:#000000;stroke-width:4;stroke-linecap:round;stroke-linejoin:round;stroke-miterlimit:10;}
</style><path
     style="stroke:#ffffff;stroke-opacity:1"
     id="path848"
     d="m 104.90923,167.93387 c -1.32564,0.222 -10.164927,-0.0709 -17.874213,-6.20593 -7.572748,-6.02693 -8.799548,-13.69461 -8.249322,-14.30149 0.550226,-0.60691 12.743857,1.18277 12.924209,0.53988 0.370895,-1.31874 -8.188185,-4.69518 -14.024662,-11.06306 -5.54608,-6.05094 -7.527915,-16.96607 -6.599661,-18.07886 0.928251,-1.1128 11.959275,5.44104 12.375001,4.85716 0.927235,-1.3038 -7.159057,-6.76082 -9.900002,-16.1902 -2.287516,-7.869614 0.756052,-20.979338 2.750114,-21.317282 1.994061,-0.337945 12.13861,13.940572 24.748986,20.777402 12.34138,6.69081 28.01468,12.07489 30.52433,9.44435 2.50964,-2.63057 -3.8842,-19.023715 12.09989,-29.141955 16.80942,-9.714298 32.55201,3.642365 34.37387,4.047309 1.82186,0.404912 14.85,-6.914788 15.40023,-5.93596 0.55023,0.978829 -8.59372,11.771955 -7.425,12.951751 1.16872,1.180766 10.99944,-2.529568 10.99944,-1.078827 0,1.45074 -10.44921,8.229552 -11.27455,11.063062 -0.82535,2.83352 4.64024,23.47594 -11.137,46.00702 -36.16211,44.38827 -94.047978,45.60207 -108.484292,23.34094"
     class="st0" /><path
     style="stroke:#ffffff;stroke-opacity:1"
     id="path850"
     d="m 19.015808,135.51451 c 3.292189,60.83742 57.337681,106.69944 115.291822,101.46936 56.58468,-5.10611 97.99534,-56.52917 94.64711,-111.35664 C 225.56168,70.044897 176.85135,23.9109 119.87845,26.025527 30.850774,29.84686 17.625977,114.1542 18.801831,117.81957"
     class="st0" /></svg>
